<svg width="48" height="48" viewBox="0 0 48 48" fill="none" xmlns="http://www.w3.org/2000/svg">
<rect width="48" height="48" rx="24" fill="url(#paint0_linear_24_57)"/>
<path d="M29 19H31C31.5304 19 32.0391 19.2107 32.4142 19.5858C32.7893 19.9609 33 20.4696 33 21V27C33 27.5304 32.7893 28.0391 32.4142 28.4142C32.0391 28.7893 31.5304 29 31 29H29V33L25 29H21C20.7373 29.0003 20.4772 28.9486 20.2345 28.8481C19.9919 28.7475 19.7715 28.6 19.586 28.414M19.586 28.414L23 25H27C27.5304 25 28.0391 24.7893 28.4142 24.4142C28.7893 24.0391 29 23.5304 29 23V17C29 16.4696 28.7893 15.9609 28.4142 15.5858C28.0391 15.2107 27.5304 15 27 15H17C16.4696 15 15.9609 15.2107 15.5858 15.5858C15.2107 15.9609 15 16.4696 15 17V23C15 23.5304 15.2107 24.0391 15.5858 24.4142C15.9609 24.7893 16.4696 25 17 25H19V29L19.586 28.414Z" stroke="#F5F0FF" stroke-width="2" stroke-linecap="round" stroke-linejoin="round"/>
<defs>
<linearGradient id="paint0_linear_24_57" x1="34.0206" y1="17.0526" x2="-3.58747" y2="22.303" gradientUnits="userSpaceOnUse">
<stop stop-color="#944CDC"/>
<stop offset="1" stop-color="#5800AF"/>
</linearGradient>
</defs>
</svg>
