<svg width="418" height="387" viewBox="0 0 418 387" fill="none" xmlns="http://www.w3.org/2000/svg">
<path d="M251.947 6.98421C241.211 6.98421 230.474 5 219.737 5C209 5 198.263 6.98421 187.526 6.98421M376.495 80.4C363.687 64.5976 348.502 50.5665 331.4 38.7316M410.853 213.342C413 203.421 413 193.5 413 183.579C413 173.658 410.853 163.737 410.853 153.816M331.4 328.426C348.502 316.591 363.687 302.56 376.495 286.758M187.526 360.174C198.263 362.158 209 362.158 219.737 362.158C230.474 362.158 241.211 360.174 251.947 360.174M37.2105 292.711L5 382L101.632 352.237M28.6211 153.816C28.6211 163.737 26.4737 173.658 26.4737 183.579C26.4737 193.5 28.6211 203.421 28.6211 213.342M108.074 38.7316C90.9719 50.5665 75.787 64.5976 62.9789 80.4" stroke="#A7A7A7" stroke-width="9" stroke-linecap="round" stroke-linejoin="round"/>
</svg>
