<svg width="124" height="124" viewBox="0 0 124 124" fill="none" xmlns="http://www.w3.org/2000/svg">
<rect x="1.75" y="1" width="110" height="111.372" rx="7" stroke="#2C2C2C" stroke-width="2"/>
<rect x="11.75" y="10.7041" width="111" height="112.372" rx="7.5" fill="#292929"/>
<rect x="11.75" y="10.7041" width="111" height="112.372" rx="7.5" stroke="#2C2C2C"/>
<path d="M91.25 64.5412L68.5567 87.2345C65.7766 90.0146 62.006 91.5765 58.0743 91.5765C54.1427 91.5765 50.372 90.0146 47.5919 87.2345C44.8118 84.4544 43.25 80.6838 43.25 76.7521C43.25 72.8205 44.8118 69.0499 47.5919 66.2698L68.7542 45.1075C70.6076 43.2508 73.1227 42.2064 75.7461 42.2041C78.3695 42.2018 80.8864 43.2417 82.7431 45.0951C84.5998 46.9485 85.6441 49.4636 85.6465 52.087C85.6488 54.7104 84.6088 57.2273 82.7554 59.084L61.5438 80.2463C60.6171 81.173 59.3602 81.6936 58.0496 81.6936C56.7391 81.6936 55.4822 81.173 54.5555 80.2463C53.6288 79.3196 53.1082 78.0627 53.1082 76.7521C53.1082 75.4416 53.6288 74.1847 54.5555 73.258L75.5203 52.318" stroke="#F5F0FF" stroke-width="4" stroke-linecap="round" stroke-linejoin="round"/>
</svg>
